<?xml version="1.0" standalone="no"?>
<!DOCTYPE svg PUBLIC "-//W3C//DTD SVG 20010904//EN"
 "http://www.w3.org/TR/2001/REC-SVG-20010904/DTD/svg10.dtd">
<svg version="1.0" xmlns="http://www.w3.org/2000/svg"
 width="611.000000pt" height="472.000000pt" viewBox="0 0 611.000000 472.000000"
 preserveAspectRatio="xMidYMid meet">

<g transform="translate(0.000000,472.000000) scale(0.100000,-0.100000)"
fill="#000000" stroke="none">
<path d="M2974 4190 c-644 -53 -1208 -390 -1564 -935 -48 -73 -170 -309 -170
-327 0 -4 166 -8 369 -8 365 0 368 0 401 -22 75 -51 75 -51 78 -333 3 -236 2
-258 -17 -299 -12 -28 -33 -53 -53 -66 -32 -19 -49 -20 -483 -20 l-450 0 3
-57 c20 -464 154 -847 424 -1213 21 -28 39 -19 29 16 -8 30 -2 104 8 104 7 0
30 -125 37 -193 1 -19 20 -46 56 -81 185 -181 335 -297 378 -294 23 2 27 5 18
15 -8 10 -7 13 3 13 10 0 11 2 2 8 -7 4 -10 25 -7 57 3 28 7 84 9 125 2 41 5
77 5 80 4 10 1 55 -4 78 -3 12 -1 22 3 22 4 0 7 10 5 22 -1 13 -3 34 -4 48 -1
21 -3 22 -9 7 -4 -10 -11 -19 -16 -20 -6 -1 -9 -5 -8 -9 3 -9 -25 -119 -32
-126 -3 -3 -12 3 -21 14 -8 10 -13 13 -9 7 3 -7 2 -13 -3 -13 -6 0 -8 -10 -6
-22 2 -13 2 -17 -2 -10 -3 6 -10 10 -15 6 -5 -3 -9 2 -9 11 0 11 -4 13 -12 8
-7 -4 -17 -8 -22 -8 -5 0 -12 -9 -16 -20 -6 -17 -8 -16 -14 12 -4 19 -3 41 4
54 10 17 9 20 -2 13 -7 -4 -5 2 5 13 11 12 15 27 11 38 -5 12 -4 16 3 12 6 -4
13 2 16 13 3 10 0 21 -7 24 -7 3 -6 8 4 15 13 9 12 11 -3 11 -16 0 -18 5 -12
41 5 29 4 40 -4 35 -9 -6 -14 12 -10 40 0 4 -4 10 -10 13 -10 6 -14 23 -22 81
-4 30 1 51 11 45 6 -4 10 10 10 34 0 28 -4 41 -14 41 -16 0 -28 60 -15 74 5 6
9 1 9 -12 0 -12 5 -22 10 -22 6 0 10 -8 10 -18 0 -11 9 -29 20 -42 17 -20 18
-25 5 -43 -21 -31 -18 -43 5 -22 11 10 17 22 14 26 -3 5 0 9 7 9 8 0 6 6 -4
18 -17 19 -24 47 -9 39 11 -7 6 74 -7 106 -20 51 -14 115 14 142 13 14 29 25
35 25 6 0 0 -10 -14 -22 -40 -36 -43 -91 -9 -158 33 -63 60 -81 50 -32 -7 34
19 200 34 218 5 6 6 14 2 18 -4 4 3 9 15 13 12 3 19 9 16 14 -3 5 2 9 10 9 12
0 13 -5 4 -32 -8 -23 -8 -43 1 -78 7 -26 11 -85 11 -131 -1 -46 1 -92 5 -101
10 -25 41 -31 74 -15 l28 14 -13 -27 c-20 -40 -29 -90 -15 -90 6 0 11 14 11
30 0 17 4 30 10 30 5 0 7 6 4 14 -3 8 -1 17 5 21 7 3 11 -3 11 -15 0 -16 4
-20 16 -16 10 4 15 1 13 -12 -1 -9 4 -30 11 -45 11 -23 11 -30 1 -36 -9 -6
-10 -11 -2 -15 6 -4 11 -21 11 -37 0 -17 -4 -28 -10 -24 -5 3 -7 12 -3 20 3 8
0 15 -7 15 -6 0 -9 -4 -5 -9 3 -5 1 -12 -5 -16 -6 -4 -7 -11 -4 -17 4 -6 0
-14 -7 -19 -10 -6 -5 -9 16 -9 30 0 31 -1 32 -55 0 -30 -2 -53 -6 -51 -4 3 -6
-24 -6 -59 1 -39 -2 -62 -8 -58 -6 4 -7 -3 -3 -18 11 -33 9 -61 -4 -69 -6 -4
-8 -13 -5 -22 3 -8 1 -26 -4 -40 -6 -17 -6 -29 0 -35 7 -7 5 -16 -5 -26 -10
-10 -12 -18 -6 -22 6 -4 8 -10 5 -15 -3 -5 -1 -11 5 -15 16 -10 2 -25 -18 -19
-10 4 -13 2 -7 -3 14 -11 17 -66 4 -57 -7 4 -7 -1 0 -15 8 -14 8 -21 1 -21 -5
0 -10 -7 -10 -15 0 -8 5 -15 11 -15 8 0 8 -4 1 -13 -6 -7 -8 -18 -4 -24 10
-16 262 -133 286 -133 1 0 2 24 0 52 -1 29 -3 53 -4 53 -1 0 -3 11 -5 25 -7
50 -13 76 -33 135 -26 75 -38 136 -23 115 9 -12 11 -10 11 11 0 14 -3 29 -7
33 -4 4 -8 15 -8 24 -4 55 -6 63 -14 58 -9 -6 -8 4 9 104 7 41 8 74 2 90 -7
19 -5 28 7 37 15 11 15 12 0 13 -28 0 -12 50 16 50 16 0 24 7 27 25 3 13 2 22
-3 20 -4 -3 -10 1 -12 7 -3 8 -6 5 -6 -5 -1 -26 -21 -4 -45 48 -10 22 -21 44
-24 49 -3 5 1 6 8 1 9 -5 11 -4 6 3 -9 16 -16 49 -18 94 -1 35 -3 37 -42 44
-50 8 -73 19 -109 55 -24 23 -28 32 -22 58 4 17 13 31 21 31 10 0 14 12 14 38
0 21 5 43 12 50 7 7 11 33 9 61 -2 41 2 53 23 74 30 31 33 47 8 47 -23 0 -42
19 -42 42 0 10 14 40 31 68 29 48 30 51 21 117 -9 63 -10 64 -11 22 -1 -64
-12 -110 -22 -103 -5 3 -7 10 -4 15 6 8 -2 11 -21 8 -4 0 -11 5 -15 13 -7 10
-9 8 -9 -6 0 -12 5 -16 14 -13 14 6 14 -20 0 -90 -6 -30 -53 -32 -61 -3 -3 11
-10 17 -15 14 -5 -3 -7 -12 -4 -20 3 -9 -2 -14 -14 -14 -11 0 -20 -4 -20 -10
0 -5 -5 -10 -11 -10 -5 0 -7 5 -4 10 3 6 1 10 -4 10 -6 0 -11 -5 -11 -12 0 -6
-3 -8 -7 -5 -3 4 -16 -4 -29 -18 -17 -18 -23 -21 -28 -10 -3 8 3 16 12 19 10
4 17 17 18 33 1 16 2 33 4 38 5 20 0 45 -10 45 -5 0 -10 -11 -10 -25 0 -14 -5
-25 -11 -25 -5 0 -7 -5 -4 -10 3 -5 2 -10 -4 -10 -5 0 -9 8 -9 18 2 30 -13
114 -22 133 -8 14 -1 26 38 59 83 74 190 150 244 175 42 19 266 65 317 65 6 0
3 -21 -5 -47 -27 -83 -28 -93 -10 -93 16 0 16 -18 0 -67 -2 -7 1 -13 6 -13 18
0 38 46 59 138 12 51 26 105 32 120 14 36 88 112 104 105 13 -4 25 -31 29 -67
2 -10 10 -24 18 -30 11 -8 13 -15 4 -28 -15 -24 -7 -28 63 -32 54 -3 64 0 76
18 16 21 21 22 160 16 41 -2 73 3 100 15 32 14 36 19 20 22 -53 12 -108 36
-195 85 -74 42 -99 62 -117 93 -42 75 -24 103 21 34 15 -22 29 -39 32 -36 6 6
-23 67 -52 107 -18 25 -24 43 -20 63 3 15 2 27 -2 27 -10 0 -33 62 -25 69 3 3
8 0 11 -7 9 -27 64 -82 81 -81 12 0 10 3 -5 9 -30 12 -64 58 -64 86 0 14 5 34
12 47 6 12 14 29 18 37 11 23 46 37 82 32 l33 -5 -40 -14 c-34 -12 -85 -52
-85 -67 0 -6 91 -6 113 0 11 3 17 15 17 32 l0 27 25 -27 c14 -15 25 -37 25
-50 0 -19 2 -20 10 -8 8 12 10 10 10 -8 0 -35 -18 -62 -53 -78 -32 -15 -10
-13 27 1 16 7 17 5 8 -11 -19 -36 2 -54 65 -54 l57 0 -31 33 c-29 30 -31 37
-32 108 -1 71 1 77 21 83 47 12 58 8 58 -24 0 -29 51 -100 71 -100 5 0 -4 12
-20 28 -21 19 -31 40 -35 72 -3 25 -3 39 0 33 3 -7 10 -13 15 -13 6 0 8 4 4 9
-3 5 -1 12 5 16 5 3 10 -1 10 -9 0 -11 9 -16 30 -16 23 0 30 4 30 20 0 21 15
27 25 10 9 -15 35 -12 35 4 0 20 -18 29 -70 37 l-45 6 37 16 c21 9 48 17 62
17 37 0 84 -50 92 -100 5 -28 10 -37 15 -28 5 7 9 9 9 4 0 -6 7 -1 15 10 13
18 14 17 15 -17 0 -20 -7 -58 -15 -85 -8 -27 -15 -68 -15 -90 0 -56 -23 -116
-65 -176 l-36 -49 31 -31 c17 -17 48 -56 69 -87 22 -31 46 -63 54 -70 15 -12
201 -72 267 -86 19 -4 67 -22 107 -41 56 -27 82 -47 123 -96 52 -62 106 -159
130 -233 7 -22 30 -60 50 -85 42 -50 60 -96 60 -148 0 -24 13 -54 44 -101 47
-71 116 -217 116 -248 1 -43 6 -44 246 -41 l229 3 52 105 c226 452 273 1002
129 1493 l-17 57 -337 0 c-330 0 -338 1 -376 23 -78 44 -76 33 -76 557 0 432
-1 466 -17 476 -152 94 -327 180 -464 227 -253 87 -568 128 -825 107z m143
-968 c63 10 73 10 88 -5 9 -9 25 -17 36 -17 11 0 22 -6 25 -14 3 -8 19 -16 35
-20 19 -4 33 -14 39 -31 5 -14 14 -25 19 -25 5 0 13 -10 17 -22 3 -13 21 -44
40 -70 18 -25 36 -64 39 -85 4 -21 9 -47 11 -58 5 -20 5 -20 -8 0 -47 74 -60
85 -107 85 -62 -1 -131 -32 -131 -60 0 -15 -11 -25 -35 -36 -51 -21 -74 -17
-106 17 -28 30 -31 31 -97 27 -37 -3 -75 -8 -84 -13 -16 -6 -18 0 -18 57 0 44
6 77 20 106 11 22 20 47 20 54 0 7 16 30 35 52 19 21 35 42 35 48 0 5 4 7 8 4
4 -2 14 -1 22 4 9 5 17 5 20 -1 4 -6 32 -5 77 3z m403 -331 c0 -11 -4 -23 -10
-26 -6 -4 -10 5 -10 19 0 14 5 26 10 26 6 0 10 -9 10 -19z m-404 -249 c-10
-10 -29 15 -21 28 6 9 10 8 17 -4 6 -10 7 -20 4 -24z m-1211 -812 c3 -5 1 -10
-4 -10 -6 0 -11 5 -11 10 0 6 2 10 4 10 3 0 8 -4 11 -10z m-14 -42 c8 -24 13
-46 11 -50 -1 -5 2 -8 7 -8 5 0 11 -8 13 -18 5 -18 -13 -42 -32 -42 -6 0 -8
-4 -5 -10 3 -6 -1 -7 -9 -4 -12 4 -13 11 -6 24 7 14 3 25 -20 51 -18 21 -25
36 -18 38 7 2 14 -1 16 -7 2 -7 8 -12 14 -12 6 0 6 6 -2 15 -13 15 -6 65 9 65
4 0 14 -19 22 -42z m146 -90 c-3 -8 -6 -5 -6 6 -1 11 2 17 5 13 3 -3 4 -12 1
-19z m73 -70 c0 -16 -3 -19 -11 -11 -6 6 -8 16 -5 22 11 17 16 13 16 -11z
m-390 -154 c5 -1 13 -2 16 -3 3 0 -8 -14 -25 -30 -17 -16 -31 -38 -31 -50 0
-25 -19 -28 -21 -3 -1 9 -1 21 0 26 1 5 -5 4 -13 -4 -14 -10 -16 -10 -16 6 0
26 62 88 72 71 4 -6 12 -13 18 -13z m64 -121 c-3 -21 -10 -43 -15 -49 -5 -6
-6 -14 -2 -17 3 -4 0 -13 -6 -21 -7 -8 -10 -19 -7 -25 4 -5 0 -16 -8 -24 -8
-8 -13 -17 -10 -20 3 -3 1 -8 -4 -11 -25 -15 10 151 41 192 15 19 17 14 11
-25z m-160 -39 c-7 -26 -44 -51 -44 -29 0 13 40 58 46 52 2 -2 1 -12 -2 -23z
m173 -91 c-3 -27 -6 -50 -6 -52 -1 -2 -10 -1 -20 2 -14 3 -18 1 -14 -9 3 -8 8
-12 12 -10 4 3 8 -4 8 -15 2 -21 -13 -26 -20 -6 -3 6 -6 2 -6 -11 -1 -13 3
-20 9 -17 6 3 7 -1 3 -10 -3 -9 -9 -13 -12 -8 -3 4 -12 9 -18 11 -14 2 -13
-19 1 -29 5 -4 6 -15 1 -25 -6 -17 -8 -17 -16 5 -14 35 -7 83 14 103 10 9 18
19 18 22 -1 8 42 96 47 96 2 0 2 -21 -1 -47z m-134 -69 c-7 -3 -10 -21 -7 -50
3 -24 2 -44 -3 -44 -4 0 -7 19 -7 43 2 56 2 57 17 56 9 0 9 -2 0 -5z m-176
-110 c-5 -39 -17 -59 -17 -28 0 24 11 64 17 64 3 0 2 -16 0 -36z m340 -338
c-3 -8 -15 -14 -26 -13 -11 0 -17 5 -15 9 3 5 10 6 15 3 5 -4 12 1 15 10 4 9
9 14 11 11 3 -3 3 -12 0 -20z m547 -2 c3 -8 2 -12 -4 -9 -6 3 -10 10 -10 16 0
14 7 11 14 -7z"/>
<path d="M4847 4188 c-9 -25 8 -38 59 -47 69 -12 97 -25 144 -67 64 -58 84
-105 85 -194 0 -87 -17 -130 -77 -194 -41 -42 -45 -68 -14 -74 26 -5 100 71
128 132 32 72 32 201 0 267 -55 110 -147 178 -257 186 -48 4 -63 2 -68 -9z"/>
<path d="M4690 3360 c0 -39 1 -40 35 -40 29 0 35 -4 35 -20 0 -24 -27 -37 -43
-21 -6 6 -17 11 -24 11 -11 0 -11 -5 -3 -20 7 -14 21 -20 43 -20 40 0 57 15
57 52 0 29 -31 54 -56 44 -8 -3 -14 1 -14 9 0 10 10 15 30 15 20 0 30 5 30 15
0 11 -12 15 -45 15 l-45 0 0 -40z"/>
<path d="M4820 3325 c0 -60 3 -75 15 -75 9 0 15 9 15 24 0 37 14 39 34 5 10
-16 26 -29 37 -29 18 0 18 3 -7 40 l-27 40 27 35 c23 29 24 35 10 35 -10 0
-30 -15 -45 -32 l-28 -33 -1 33 c0 22 -5 32 -15 32 -12 0 -15 -15 -15 -75z"/>
<path d="M4990 3355 c0 -8 -7 -15 -15 -15 -8 0 -15 -7 -15 -15 0 -8 7 -15 15
-15 8 0 15 -9 15 -20 0 -11 7 -20 15 -20 8 0 15 9 15 20 0 13 7 20 20 20 11 0
20 7 20 15 0 8 -9 15 -20 15 -11 0 -20 7 -20 15 0 8 -7 15 -15 15 -8 0 -15 -7
-15 -15z"/>
<path d="M3441 2767 c-13 -21 -12 -21 5 -5 10 10 16 20 13 22 -3 3 -11 -5 -18
-17z"/>
<path d="M533 2735 c-17 -7 -36 -22 -42 -34 -6 -11 -11 -78 -11 -156 l0 -137
29 -29 29 -29 135 0 c131 0 136 1 166 26 l31 26 0 140 c0 81 -5 148 -11 160
-19 35 -70 48 -186 48 -69 -1 -119 -6 -140 -15z m278 -175 c6 -80 4 -97 -9
-107 -11 -9 -53 -13 -128 -13 -140 0 -140 0 -135 119 2 47 5 90 8 94 2 4 62 6
131 5 l127 -3 6 -95z"/>
<path d="M560 2570 l0 -70 45 0 c25 0 45 -4 45 -10 0 -5 11 -10 24 -10 14 0
28 5 31 10 3 6 24 10 46 10 l39 0 0 70 0 70 -115 0 -115 0 0 -70z m78 33 c-2
-22 -9 -29 -30 -31 -25 -3 -28 0 -28 27 0 28 3 31 31 31 27 0 30 -3 27 -27z
m137 -3 c-3 -5 -31 -10 -61 -10 -30 0 -54 5 -54 10 0 6 27 10 61 10 37 0 58
-4 54 -10z m-135 -65 c0 -21 -5 -25 -30 -25 -25 0 -30 4 -30 25 0 21 5 25 30
25 25 0 30 -4 30 -25z m113 -2 c-18 -2 -48 -2 -65 0 -18 2 -4 4 32 4 36 0 50
-2 33 -4z"/>
<path d="M555 2470 c3 -5 26 -10 51 -10 28 0 43 4 39 10 -3 6 -26 10 -51 10
-28 0 -43 -4 -39 -10z"/>
<path d="M705 2470 c-4 -6 13 -10 44 -10 27 0 53 5 56 10 4 6 -13 10 -44 10
-27 0 -53 -4 -56 -10z"/>
<path d="M1100 2705 c-18 -22 -4 -31 24 -16 24 13 46 8 46 -10 0 -6 -18 -27
-40 -46 -56 -50 -53 -63 15 -63 42 0 55 3 55 15 0 10 -10 15 -31 15 l-31 0 31
35 c35 40 35 39 21 66 -13 23 -72 26 -90 4z"/>
<path d="M1222 2648 c3 -75 21 -102 31 -48 8 38 18 38 40 0 10 -16 25 -30 33
-30 19 0 18 4 -8 49 l-22 38 23 31 c18 26 20 32 7 32 -9 0 -30 -15 -46 -32
l-29 -33 -1 33 c0 22 -5 32 -15 32 -13 0 -15 -12 -13 -72z"/>
<path d="M3323 2703 c9 -2 23 -2 30 0 6 3 -1 5 -18 5 -16 0 -22 -2 -12 -5z"/>
<path d="M1400 2680 c0 -13 -7 -20 -20 -20 -11 0 -20 -4 -20 -10 0 -5 9 -10
20 -10 13 0 20 -7 20 -20 0 -11 7 -20 15 -20 8 0 15 9 15 20 0 11 7 20 15 20
8 0 15 5 15 10 0 6 -7 10 -15 10 -8 0 -15 9 -15 20 0 11 -7 20 -15 20 -8 0
-15 -9 -15 -20z"/>
<path d="M3340 2602 c0 -11 -45 -32 -73 -33 -20 -1 -20 -2 -2 -6 11 -3 25 -9
31 -14 7 -6 18 -2 29 11 10 11 21 17 25 15 5 -3 6 4 3 15 -5 20 -13 27 -13 12z"/>
<path d="M3000 2553 c0 -19 81 -93 102 -94 13 0 30 -2 38 -4 10 -1 15 5 15 21
0 18 -7 24 -32 29 -18 3 -33 10 -33 15 0 9 75 27 93 22 4 -1 7 2 7 7 0 5 -43
9 -95 10 -52 1 -95 -2 -95 -6z"/>
<path d="M3208 2553 c6 -2 18 -2 25 0 6 3 1 5 -13 5 -14 0 -19 -2 -12 -5z"/>
<path d="M3371 2343 c0 -27 4 -95 8 -153 13 -155 43 -232 71 -180 6 11 19 20
29 20 14 0 18 8 17 38 -1 34 -3 37 -28 37 -16 -1 -28 3 -28 7 0 4 4 8 9 8 5 0
7 10 4 23 -5 18 -3 20 8 10 20 -20 31 -15 17 6 -7 11 -16 17 -21 14 -5 -3 -3
4 5 16 11 18 10 25 -1 44 -27 42 -62 119 -57 125 7 6 -13 32 -25 32 -5 0 -9
-21 -8 -47z m119 -287 c0 -5 -7 -3 -15 4 -8 7 -15 20 -15 28 0 13 3 12 15 -4
8 -10 15 -23 15 -28z"/>
<path d="M2402 2063 c1 -4 -3 -18 -10 -30 -15 -28 -8 -45 26 -65 21 -13 32
-32 47 -87 10 -39 23 -71 27 -71 16 0 7 -24 -18 -47 -15 -14 -24 -18 -21 -9 4
10 1 13 -9 9 -7 -3 -14 -9 -14 -14 0 -5 -4 -9 -10 -9 -5 0 -10 8 -10 18 0 14
-2 15 -10 2 -9 -13 -11 -13 -20 0 -9 13 -10 13 -10 0 1 -19 67 -52 74 -36 3 7
5 7 5 -1 1 -12 59 -53 94 -66 23 -9 22 14 -3 41 -18 19 -18 22 -4 30 9 5 24 7
33 5 12 -3 16 3 16 21 0 15 -4 26 -8 26 -5 0 -5 5 -2 10 3 6 -1 13 -10 16 -9
4 -14 13 -11 21 3 8 1 11 -4 8 -6 -3 -10 1 -10 10 0 9 -4 13 -10 10 -5 -3 -10
3 -10 14 0 11 -9 25 -20 31 -13 7 -18 16 -13 23 4 7 8 15 8 19 0 12 15 21 15
9 0 -7 4 -10 8 -7 11 7 92 -70 84 -80 -4 -4 -1 -4 6 0 6 4 12 14 12 22 0 12 2
12 14 2 8 -7 11 -17 8 -22 -3 -5 2 -7 11 -3 8 3 18 0 21 -8 3 -8 0 -15 -7 -18
-7 -2 3 -4 21 -4 36 0 68 -27 67 -58 0 -11 4 -23 10 -27 6 -5 4 -12 -5 -20 -8
-7 -13 -12 -11 -11 2 2 13 -11 23 -28 17 -28 17 -33 3 -61 -8 -17 -13 -34 -10
-36 3 -3 5 0 5 7 0 7 5 9 10 6 6 -3 10 3 10 14 0 14 5 19 16 14 12 -4 13 -8 3
-13 -17 -11 -3 -44 16 -36 14 5 19 -6 18 -41 -1 -7 4 -13 9 -13 6 0 8 -7 5
-14 -4 -9 2 -17 14 -21 11 -4 24 -18 30 -32 13 -34 11 -179 -5 -303 -7 -58 -9
-106 -5 -108 5 -2 6 -30 2 -63 -4 -41 -2 -59 6 -59 6 0 11 3 11 8 0 4 7 115
15 247 21 346 20 466 -5 515 -11 22 -20 45 -20 51 0 28 -43 99 -75 123 -18 14
-36 34 -39 44 -9 27 -126 61 -230 67 -108 6 -148 20 -140 51 3 12 1 25 -5 29
-7 3 -10 3 -9 -2z"/>
<path d="M2740 2054 c0 -8 5 -12 10 -9 6 3 10 10 10 16 0 5 -4 9 -10 9 -5 0
-10 -7 -10 -16z"/>
<path d="M2756 1993 c-4 -9 -2 -20 4 -25 5 -4 8 -5 5 -2 -2 4 0 15 6 25 6 11
6 19 0 19 -5 0 -12 -8 -15 -17z"/>
<path d="M2140 1816 c0 -8 4 -17 9 -20 5 -4 7 3 4 14 -6 23 -13 26 -13 6z"/>
<path d="M4021 1804 c0 -11 3 -14 6 -6 3 7 2 16 -1 19 -3 4 -6 -2 -5 -13z"/>
<path d="M3980 1800 c19 -13 30 -13 30 0 0 6 -10 10 -22 10 -19 0 -20 -2 -8
-10z"/>
<path d="M2572 1711 c-24 -6 -24 -6 -5 -24 19 -16 20 -16 31 8 12 26 11 27
-26 16z"/>
<path d="M2606 1642 c-12 -19 -15 -82 -4 -82 6 0 8 -7 5 -15 -4 -8 -2 -17 3
-20 5 -3 12 -32 16 -65 4 -34 11 -57 16 -54 6 4 8 19 6 35 -3 16 -1 30 4 31 4
2 2 20 -4 41 -10 32 -9 40 3 48 10 6 10 9 2 9 -7 0 -13 6 -13 13 -1 27 -26 71
-34 59z"/>
<path d="M2535 1593 c-15 -22 -16 -32 -6 -58 14 -39 14 -55 1 -35 -8 11 -9 7
-4 -15 4 -20 3 -26 -4 -17 -7 11 -12 6 -20 -17 -6 -17 -16 -31 -23 -31 -7 0
-9 -3 -6 -7 4 -3 3 -11 -2 -17 -6 -7 -4 -16 4 -23 11 -10 15 -7 20 19 4 18 10
26 14 19 6 -9 38 80 68 192 7 27 -22 21 -42 -10z m22 -15 c-3 -7 -5 -2 -5 12
0 14 2 19 5 13 2 -7 2 -19 0 -25z m-10 -50 c-3 -7 -5 -2 -5 12 0 14 2 19 5 13
2 -7 2 -19 0 -25z"/>
<path d="M2746 1565 c-9 -26 -7 -32 5 -12 6 10 9 21 6 23 -2 3 -7 -2 -11 -11z"/>
<path d="M4228 1547 c-5 -10 -8 -31 -8 -45 0 -15 -11 -53 -24 -84 -32 -78 -18
-74 17 4 19 43 27 75 25 103 -2 29 -5 35 -10 22z"/>
<path d="M2717 1481 c-3 -13 -1 -18 9 -14 7 2 10 11 7 19 -7 19 -10 18 -16 -5z"/>
<path d="M1986 1472 c-11 -18 2 -68 14 -56 5 5 6 23 2 39 -6 20 -11 25 -16 17z"/>
<path d="M2746 1455 c-3 -8 -1 -15 4 -15 6 0 10 7 10 15 0 8 -2 15 -4 15 -2 0
-6 -7 -10 -15z"/>
<path d="M2555 1404 c-9 -53 5 -285 21 -315 8 -15 9 -31 4 -39 -6 -9 -4 -17 3
-22 8 -5 8 -11 2 -15 -11 -9 -12 -26 0 -67 5 -20 4 -31 -6 -37 -10 -6 -11 -9
-1 -9 6 0 12 -12 12 -28 0 -15 6 -34 12 -40 10 -10 10 -15 -2 -22 -9 -6 -10
-10 -3 -10 6 0 14 4 17 9 9 13 9 387 1 401 -13 21 -12 60 1 71 7 6 10 17 7 25
-3 8 0 14 6 14 6 0 11 4 11 8 0 4 -12 8 -27 8 -24 -1 -28 2 -25 26 1 14 -2 29
-8 33 -5 3 -10 11 -10 16 0 6 6 7 13 3 8 -5 8 -2 -2 9 -18 22 -18 23 -26 -19z"/>
<path d="M3045 1275 c-22 -69 -38 -125 -34 -125 7 0 83 240 77 245 -2 2 -22
-52 -43 -120z"/>
<path d="M2690 1379 c0 -9 9 -19 20 -22 13 -3 20 0 20 10 0 8 -5 11 -11 7 -6
-3 -15 0 -20 7 -7 11 -9 11 -9 -2z"/>
<path d="M2447 1363 c-10 -16 11 -95 23 -88 6 4 10 22 10 41 0 19 -4 33 -9 29
-5 -3 -11 3 -13 12 -2 13 -6 15 -11 6z"/>
<path d="M2492 1310 c0 -19 2 -27 5 -17 2 9 2 25 0 35 -3 9 -5 1 -5 -18z"/>
<path d="M2700 1332 c0 -7 -4 -11 -9 -8 -12 8 -24 -78 -16 -117 5 -25 4 -29
-5 -17 -9 12 -10 5 -8 -32 2 -25 0 -44 -4 -41 -15 9 -8 -46 8 -61 18 -18 34
-21 34 -5 0 5 5 7 10 4 18 -11 11 14 -10 35 -11 11 -20 25 -20 31 0 6 7 3 16
-5 20 -21 30 -21 13 0 -12 15 -11 16 10 9 13 -4 21 -3 18 1 -8 15 12 56 24 48
7 -4 1 7 -12 25 -20 28 -24 30 -30 14 -4 -10 -3 -25 2 -34 12 -23 -11 -42 -28
-24 -9 10 -9 15 -1 17 15 5 19 68 4 74 -20 8 -15 36 5 31 25 -7 36 30 15 51
-11 12 -16 12 -16 4z m-15 -252 c3 -5 1 -10 -4 -10 -6 0 -11 5 -11 10 0 6 2
10 4 10 3 0 8 -4 11 -10z"/>
<path d="M2482 1250 c0 -14 2 -19 5 -12 2 6 2 18 0 25 -3 6 -5 1 -5 -13z"/>
<path d="M2731 1260 c0 -14 28 -72 29 -59 0 4 -7 22 -15 40 -8 19 -14 27 -14
19z"/>
<path d="M2455 1250 c3 -5 1 -10 -4 -10 -6 0 -11 -7 -11 -15 0 -8 7 -15 15
-15 9 0 15 9 15 25 0 14 -5 25 -11 25 -5 0 -7 -4 -4 -10z"/>
<path d="M4087 1204 c-4 -4 -7 -14 -7 -23 0 -11 3 -12 11 -4 6 6 10 16 7 23
-2 6 -7 8 -11 4z"/>
<path d="M1890 1181 c0 -25 6 -27 13 -6 4 8 2 17 -3 20 -6 4 -10 -3 -10 -14z"/>
<path d="M2450 1177 c0 -14 -8 -30 -17 -36 -17 -9 -17 -11 -2 -26 15 -16 17
-13 23 30 4 26 5 49 2 53 -3 3 -6 -6 -6 -21z"/>
<path d="M2472 1180 c0 -14 2 -19 5 -12 2 6 2 18 0 25 -3 6 -5 1 -5 -13z"/>
<path d="M1927 1172 c-15 -16 -15 -19 3 -30 14 -8 21 -9 26 0 5 7 3 8 -6 3
-10 -6 -11 -2 -6 19 8 31 5 32 -17 8z"/>
<path d="M1977 1140 c-3 -11 -2 -20 3 -20 4 0 10 9 13 20 3 11 2 20 -3 20 -4
0 -10 -9 -13 -20z"/>
<path d="M2749 1150 c-3 -20 -4 -25 -12 -37 -4 -6 -2 -15 5 -19 7 -4 10 -4 6
0 -4 5 2 17 12 29 19 19 18 37 -1 37 -5 0 -10 -4 -10 -10z"/>
<path d="M4238 1143 c7 -3 16 -2 19 1 4 3 -2 6 -13 5 -11 0 -14 -3 -6 -6z"/>
<path d="M2958 1120 c-2 -14 0 -39 4 -56 5 -19 4 -43 -2 -59 -5 -14 -10 -32
-9 -38 0 -7 10 15 22 48 21 57 24 60 59 63 47 4 105 -36 110 -75 l3 -25 25 20
25 20 -45 41 c-34 31 -50 39 -73 37 -40 -5 -94 11 -106 31 -8 15 -10 13 -13
-7z"/>
<path d="M2636 989 c-7 -72 -7 -220 1 -201 2 6 10 9 16 5 9 -5 9 -3 1 8 -7 8
-12 33 -12 57 -1 39 1 42 26 42 22 0 28 5 30 25 1 16 -3 25 -13 25 -8 0 -15
-4 -15 -10 0 -5 5 -10 11 -10 5 0 7 -5 4 -10 -9 -15 -26 -1 -24 18 1 10 0 19
-1 22 -1 3 -3 22 -5 43 -5 59 -11 54 -19 -14z"/>
<path d="M2784 1035 c8 -8 18 -15 22 -15 3 0 1 7 -6 15 -7 8 -17 15 -22 15 -5
0 -3 -7 6 -15z"/>
<path d="M2128 1033 c6 -2 18 -2 25 0 6 3 1 5 -13 5 -14 0 -19 -2 -12 -5z"/>
<path d="M2757 1029 c7 -7 15 -10 18 -7 3 3 -2 9 -12 12 -14 6 -15 5 -6 -5z"/>
<path d="M2857 989 c-18 -49 -17 -73 2 -53 8 9 26 104 19 104 -2 0 -11 -23
-21 -51z"/>
<path d="M2672 999 c2 -7 10 -15 17 -17 8 -3 12 1 9 9 -2 7 -10 15 -17 17 -8
3 -12 -1 -9 -9z"/>
<path d="M2717 989 c7 -7 15 -10 18 -7 3 3 -2 9 -12 12 -14 6 -15 5 -6 -5z"/>
<path d="M4233 979 c-56 -16 -63 -37 -63 -192 l0 -139 29 -29 29 -29 140 0
c134 0 140 1 166 25 26 24 26 25 26 167 0 163 -6 180 -68 198 -45 12 -215 12
-259 -1z m222 -99 c0 -14 8 -31 18 -38 18 -14 24 -81 8 -98 -5 -5 -11 -25 -13
-44 -3 -32 -6 -35 -33 -35 -27 0 -30 3 -33 38 -3 40 -3 40 -79 37 -33 -1 -53
2 -53 9 0 6 22 12 53 13 l52 2 -52 3 c-29 2 -53 9 -53 14 0 7 20 10 50 7 28
-1 50 0 50 5 0 4 -24 8 -52 9 l-53 1 50 6 c49 6 99 36 89 53 -3 4 -2 17 1 29
10 30 50 22 50 -11z m-65 0 c0 -6 -30 -10 -70 -10 l-70 0 0 -70 0 -69 73 -4
72 -3 -77 -2 -78 -2 0 85 0 85 75 0 c43 0 75 -4 75 -10z"/>
<path d="M4420 880 c0 -13 5 -20 13 -17 6 2 12 10 12 17 0 7 -6 15 -12 18 -8
2 -13 -5 -13 -18z"/>
<path d="M4391 788 l2 -43 7 35 c6 29 8 23 9 -32 1 -71 20 -96 22 -30 l2 37 7
-40 c6 -36 7 -32 9 28 1 67 16 91 24 40 4 -21 4 -19 3 7 -1 34 -2 35 -43 38
l-43 3 1 -43z"/>
<path d="M1978 953 c-19 -24 -40 -74 -33 -81 7 -7 35 32 52 70 14 31 4 37 -19
11z"/>
<path d="M2751 918 c-1 -16 -5 -28 -11 -28 -5 0 -7 8 -4 18 5 14 4 15 -5 2 -9
-13 -11 -12 -11 4 0 11 -3 16 -7 13 -3 -4 0 -18 7 -32 7 -14 11 -28 7 -31 -3
-4 -2 -15 4 -26 14 -26 20 -60 9 -53 -5 3 -11 1 -15 -5 -3 -5 -2 -10 3 -10 6
0 6 -13 -1 -35 -7 -25 -16 -35 -31 -36 -21 -1 -21 -1 -1 -9 11 -4 30 -10 42
-15 19 -6 20 -10 11 -34 -13 -33 -17 -71 -8 -71 4 0 13 -19 20 -42 8 -24 20
-56 27 -71 9 -19 14 -64 14 -135 0 -59 3 -101 8 -94 9 15 79 13 88 -2 4 -5 -3
-7 -15 -4 -21 6 -21 5 -6 -23 8 -16 17 -29 20 -29 12 0 35 31 29 40 -3 5 -1
10 5 10 7 0 9 -12 7 -30 -3 -18 0 -34 9 -41 8 -6 12 -15 9 -19 -3 -5 29 -8 70
-9 70 -1 98 11 60 25 -8 4 -15 12 -15 20 0 23 15 16 33 -16 21 -34 68 -44 62
-12 -2 9 -4 25 -4 35 -1 15 -6 18 -33 12 -22 -4 -28 -3 -20 3 11 7 10 11 -4
16 -14 6 -15 9 -5 15 11 7 10 12 -1 30 -12 20 -20 22 -79 19 -68 -3 -99 9 -99
38 0 8 -7 14 -15 14 -8 0 -15 9 -15 19 0 11 -6 22 -12 25 -7 4 -3 4 8 2 17 -3
20 1 17 15 -6 20 4 24 26 10 7 -5 10 -14 7 -20 -4 -6 -4 -11 0 -11 13 0 85 53
79 58 -3 3 -13 -1 -22 -10 -18 -15 -53 -14 -53 2 0 5 4 20 9 34 10 24 9 24
-19 15 -17 -6 -27 -16 -24 -23 3 -7 -4 -24 -15 -37 l-20 -24 -1 27 c0 14 -6
29 -12 31 -10 4 -10 8 1 15 11 8 10 11 -7 16 -35 12 -35 94 0 104 15 3 18 10
13 26 -17 54 -16 65 4 87 16 18 31 22 71 21 29 0 48 3 45 9 -4 5 -35 9 -71 9
-81 0 -104 11 -101 48 2 23 9 29 52 40 28 8 68 15 89 15 22 1 41 7 43 13 2 7
-23 9 -81 6 -79 -4 -85 -3 -96 18 -6 12 -9 24 -6 27 8 8 -20 33 -37 33 -9 0
-18 6 -20 13 -3 6 -6 0 -6 -15z m226 -703 c9 -25 -4 -29 -17 -6 -7 15 -7 21 0
21 6 0 13 -7 17 -15z m-6 -49 c5 3 9 1 9 -5 0 -6 7 -8 15 -5 8 4 15 2 15 -4 0
-19 -37 -20 -48 -1 -7 10 -12 22 -11 26 0 5 3 2 6 -5 2 -6 9 -10 14 -6z"/>
<path d="M2650 877 c0 -7 5 -18 12 -25 9 -9 9 -12 -2 -12 -7 0 -10 -3 -6 -7
11 -11 35 -12 42 -2 3 6 12 5 21 -3 15 -12 15 -11 2 9 -9 16 -16 19 -21 10 -6
-9 -8 -8 -8 3 0 8 -9 21 -20 28 -16 10 -20 10 -20 -1z"/>
<path d="M3657 855 c7 -49 13 -58 13 -19 0 16 -5 36 -10 44 -6 10 -7 2 -3 -25z"/>
<path d="M1927 846 c-3 -8 -2 -18 3 -21 13 -8 20 9 11 24 -6 10 -10 9 -14 -3z"/>
<path d="M3661 763 c-1 -56 -28 -121 -52 -128 -12 -4 -37 2 -61 15 -33 17 -51
20 -88 15 -59 -8 -88 -25 -43 -25 48 0 103 -29 103 -55 0 -40 26 -62 91 -74
100 -20 219 -86 219 -122 0 -9 -7 -33 -15 -52 -20 -48 -19 -51 10 -25 14 12
25 28 25 35 0 9 11 12 35 10 19 -1 35 -7 35 -14 0 -6 4 -15 10 -18 6 -3 7 1 4
10 -5 13 0 15 30 13 22 -1 36 -7 36 -15 0 -7 8 -13 18 -13 15 0 15 2 2 11 -12
9 -11 10 6 6 25 -5 98 32 100 51 3 23 4 24 17 14 10 -8 23 -5 53 13 l39 24
-58 1 c-37 0 -70 6 -87 17 -23 13 -34 14 -53 6 -18 -9 -28 -8 -37 0 -9 8 -11
8 -7 1 4 -7 -5 -14 -24 -18 -49 -10 -69 -7 -69 8 0 23 -40 45 -95 53 -27 3
-43 9 -35 11 13 5 -52 21 -152 38 -22 4 -46 17 -60 33 l-23 26 26 -22 c28 -25
68 -30 73 -10 22 81 37 168 33 192 -3 24 -4 22 -6 -12z"/>
<path d="M2592 760 c0 -19 2 -27 5 -17 2 9 2 25 0 35 -3 9 -5 1 -5 -18z"/>
<path d="M4694 773 c-17 -17 -17 -18 1 -21 9 -2 21 2 25 8 10 16 40 6 40 -13
0 -7 -16 -28 -35 -47 -49 -47 -46 -60 15 -60 38 0 50 4 50 15 0 10 -10 15 -31
15 l-31 0 31 31 c33 32 39 57 19 77 -18 18 -64 15 -84 -5z"/>
<path d="M4827 783 c-4 -3 -7 -22 -7 -40 0 -33 2 -34 32 -31 25 2 33 -1 36
-16 5 -24 -16 -37 -39 -23 -23 14 -36 2 -19 -18 24 -29 79 -13 93 26 9 27 -22
62 -49 56 -18 -3 -24 0 -24 14 0 15 8 19 35 19 19 0 35 5 35 10 0 11 -83 14
-93 3z"/>
<path d="M4966 774 c-23 -22 -21 -96 2 -117 19 -18 49 -22 68 -9 34 22 41 94
13 129 -15 18 -64 17 -83 -3z m64 -28 c16 -44 -10 -97 -37 -74 -16 13 -17 70
-1 86 18 18 27 15 38 -12z"/>
<path d="M1260 749 c-86 -50 -113 -163 -58 -246 36 -54 85 -76 157 -71 70 5
116 35 142 92 24 54 24 100 -2 153 -41 85 -157 120 -239 72z"/>
<path d="M5140 750 c0 -13 -7 -20 -20 -20 -11 0 -20 -7 -20 -15 0 -8 9 -15 20
-15 11 0 20 -7 20 -15 0 -8 5 -15 10 -15 6 0 10 7 10 15 0 8 9 15 20 15 11 0
20 7 20 15 0 8 -9 15 -20 15 -13 0 -20 7 -20 20 0 11 -4 20 -10 20 -5 0 -10
-9 -10 -20z"/>
<path d="M2625 750 c-2 -4 7 -6 21 -4 35 3 41 12 9 12 -14 0 -27 -4 -30 -8z"/>
<path d="M2620 639 c0 -16 4 -28 9 -25 8 5 3 56 -5 56 -2 0 -4 -14 -4 -31z"/>
<path d="M2656 655 c4 -8 7 -15 9 -15 2 0 5 7 9 15 3 9 0 15 -9 15 -9 0 -12
-6 -9 -15z"/>
<path d="M3007 613 c-4 -3 1 -12 11 -19 14 -11 15 -16 5 -33 -20 -33 -15 -31
25 8 22 21 33 39 27 43 -12 9 -59 10 -68 1z"/>
<path d="M2650 602 c0 -5 7 -9 15 -9 8 0 15 4 15 9 0 4 -7 8 -15 8 -8 0 -15
-4 -15 -8z"/>
<path d="M2660 540 c20 -13 33 -13 25 0 -3 6 -14 10 -23 10 -15 0 -15 -2 -2
-10z"/>
<path d="M2631 494 c0 -11 3 -14 6 -6 3 7 2 16 -1 19 -3 4 -6 -2 -5 -13z"/>
<path d="M4036 497 c3 -10 9 -15 12 -12 3 3 0 11 -7 18 -10 9 -11 8 -5 -6z"/>
<path d="M2630 459 c0 -5 5 -7 10 -4 6 3 10 -1 10 -11 0 -13 3 -14 15 -4 8 7
12 16 9 21 -7 13 -44 11 -44 -2z"/>
<path d="M2630 397 c0 -8 10 -13 22 -12 31 2 33 20 3 23 -15 1 -25 -3 -25 -11z"/>
<path d="M3045 400 c11 -5 34 -15 50 -21 17 -6 24 -13 18 -16 -7 -3 -13 -11
-13 -20 0 -8 -6 -13 -12 -10 -7 2 -25 -2 -40 -9 -18 -9 -28 -10 -30 -3 -2 6
-14 2 -28 -10 l-25 -20 140 -2 c121 -1 134 -3 92 -11 -38 -8 -47 -14 -42 -27
4 -9 9 -28 12 -43 9 -44 21 -33 13 11 l-7 39 48 -2 c27 -1 51 3 53 9 2 5 5 4
5 -3 1 -8 6 -10 13 -6 7 4 23 9 36 10 23 3 23 2 6 -11 -18 -13 -18 -14 1 -11
11 2 26 -1 33 -7 6 -5 13 -7 13 -3 1 3 3 11 4 16 1 6 3 15 4 20 3 23 47 8 66
-23 11 -17 29 -33 40 -34 13 -2 15 -1 5 3 -27 11 -39 35 -30 58 8 22 4 24
-128 55 -76 18 -164 40 -197 51 -75 23 -129 34 -100 20z"/>
<path d="M2628 361 c8 -4 13 -12 12 -17 0 -5 8 -10 20 -12 11 -2 20 1 20 7 0
15 -20 24 -20 9 0 -8 -5 -6 -11 5 -5 9 -15 17 -22 17 -8 0 -8 -3 1 -9z"/>
<path d="M2933 305 c0 -8 4 -15 9 -15 4 0 8 4 8 9 0 6 -4 12 -8 15 -5 3 -9 -1
-9 -9z"/>
<path d="M3524 250 c-1 -23 3 -30 17 -30 13 0 17 5 12 17 -5 13 -3 15 13 9 55
-23 159 -44 173 -36 14 8 14 9 -1 10 -9 0 -33 9 -52 21 -19 11 -39 18 -44 15
-5 -3 -30 1 -57 9 -62 19 -60 20 -61 -15z"/>
<path d="M2697 253 c6 -16 25 -13 31 5 2 6 -6 10 -16 9 -12 -1 -18 -6 -15 -14z"/>
<path d="M3110 266 c0 -2 7 -9 15 -16 13 -11 14 -10 9 4 -5 14 -24 23 -24 12z"/>
<path d="M3490 260 c0 -5 5 -10 11 -10 5 0 7 5 4 10 -3 6 -8 10 -11 10 -2 0
-4 -4 -4 -10z"/>
<path d="M3777 241 c-4 -17 -3 -21 5 -13 5 5 8 16 6 23 -3 8 -7 3 -11 -10z"/>
<path d="M3403 223 c0 -15 2 -21 7 -14 5 8 16 -2 33 -31 14 -24 26 -36 27 -27
0 13 -54 99 -63 99 -1 0 -3 -12 -4 -27z"/>
<path d="M3280 229 c0 -5 5 -7 10 -4 6 3 10 8 10 11 0 2 -4 4 -10 4 -5 0 -10
-5 -10 -11z"/>
<path d="M2830 215 c-10 -12 -10 -15 2 -15 8 0 15 7 15 15 0 8 -1 15 -2 15 -2
0 -8 -7 -15 -15z"/>
<path d="M3135 220 c3 -5 8 -10 11 -10 2 0 4 5 4 10 0 6 -5 10 -11 10 -5 0 -7
-4 -4 -10z"/>
<path d="M3239 213 c-13 -16 -12 -17 4 -4 16 13 21 21 13 21 -2 0 -10 -8 -17
-17z"/>
<path d="M2650 200 c0 -6 -4 -8 -10 -5 -5 3 -10 1 -10 -4 0 -6 12 -11 26 -11
15 0 24 5 22 12 -6 16 -28 23 -28 8z"/>
<path d="M3277 204 c7 -3 10 -11 7 -19 -6 -15 20 -15 33 0 4 4 2 5 -4 1 -8 -4
-13 -1 -13 8 0 9 -8 16 -17 15 -10 0 -13 -3 -6 -5z"/>
<path d="M3550 185 c-16 -20 8 -31 27 -13 13 14 13 16 0 21 -9 3 -21 0 -27 -8z"/>
<path d="M2798 165 c-5 -22 -2 -25 23 -25 15 0 35 -3 45 -7 16 -6 17 -5 4 9
-8 9 -19 14 -23 11 -4 -3 -16 5 -26 16 l-19 21 -4 -25z"/>
<path d="M2900 156 c0 -2 7 -9 15 -16 9 -7 15 -8 15 -2 0 5 -7 12 -15 16 -8 3
-15 4 -15 2z"/>
</g>
</svg>
